<svg width="105" height="17" viewBox="0 0 105 17" fill="none" xmlns="http://www.w3.org/2000/svg">
<rect x="1" y="1" width="103" height="15" stroke="#EBFF00" stroke-width="2"/>
<path d="M5.94886 4.27273L7.73864 10.4261H7.80682L9.59659 4.27273H12.2727L9.39205 13H6.15341L3.27273 4.27273H5.94886ZM13.9506 13H11.3938L14.2745 4.27273H17.5131L20.3938 13H17.837L15.9279 6.67614H15.8597L13.9506 13ZM13.4734 9.55682H18.2802V11.3295H13.4734V9.55682ZM21.2344 4.27273H24.1832L26.2116 9.21591H26.3139L28.3423 4.27273H31.2912V13H28.973V7.95455H28.9048L26.9616 12.9318H25.5639L23.6207 7.92045H23.5526V13H21.2344V4.27273ZM32.4141 13V4.27273H36.1811C36.8288 4.27273 37.3956 4.40057 37.8814 4.65625C38.3672 4.91193 38.745 5.27131 39.0149 5.73438C39.2848 6.19744 39.4197 6.73864 39.4197 7.35795C39.4197 7.98295 39.2805 8.52415 39.0021 8.98153C38.7266 9.43892 38.3388 9.79119 37.8388 10.0384C37.3416 10.2855 36.7607 10.4091 36.0959 10.4091H33.8459V8.56818H35.6186C35.897 8.56818 36.1342 8.51989 36.3303 8.4233C36.5291 8.32386 36.6811 8.18324 36.7862 8.00142C36.8942 7.8196 36.9482 7.60511 36.9482 7.35795C36.9482 7.10795 36.8942 6.89489 36.7862 6.71875C36.6811 6.53977 36.5291 6.40341 36.3303 6.30966C36.1342 6.21307 35.897 6.16477 35.6186 6.16477H34.7834V13H32.4141ZM42.6584 4.27273V13H40.2891V4.27273H42.6584ZM43.7812 13V4.27273H47.5483C48.196 4.27273 48.7628 4.39062 49.2486 4.62642C49.7344 4.86222 50.1122 5.2017 50.3821 5.64489C50.652 6.08807 50.7869 6.61932 50.7869 7.23864C50.7869 7.86364 50.6477 8.39062 50.3693 8.8196C50.0938 9.24858 49.706 9.57244 49.206 9.79119C48.7088 10.0099 48.1278 10.1193 47.4631 10.1193H45.2131V8.27841H46.9858C47.2642 8.27841 47.5014 8.24432 47.6974 8.17614C47.8963 8.10511 48.0483 7.9929 48.1534 7.83949C48.2614 7.68608 48.3153 7.4858 48.3153 7.23864C48.3153 6.98864 48.2614 6.78551 48.1534 6.62926C48.0483 6.47017 47.8963 6.35369 47.6974 6.27983C47.5014 6.20312 47.2642 6.16477 46.9858 6.16477H46.1506V13H43.7812ZM48.8949 8.99432L51.0767 13H48.5028L46.3722 8.99432H48.8949ZM51.7969 13V4.27273H58.0866V6.18182H54.1662V7.68182H57.7628V9.59091H54.1662V11.0909H58.0696V13H51.7969ZM59.2617 13V4.27273H63.0288C63.6765 4.27273 64.2433 4.39062 64.729 4.62642C65.2148 4.86222 65.5927 5.2017 65.8626 5.64489C66.1325 6.08807 66.2674 6.61932 66.2674 7.23864C66.2674 7.86364 66.1282 8.39062 65.8498 8.8196C65.5742 9.24858 65.1864 9.57244 64.6864 9.79119C64.1893 10.0099 63.6083 10.1193 62.9435 10.1193H60.6935V8.27841H62.4663C62.7447 8.27841 62.9819 8.24432 63.1779 8.17614C63.3768 8.10511 63.5288 7.9929 63.6339 7.83949C63.7418 7.68608 63.7958 7.4858 63.7958 7.23864C63.7958 6.98864 63.7418 6.78551 63.6339 6.62926C63.5288 6.47017 63.3768 6.35369 63.1779 6.27983C62.9819 6.20312 62.7447 6.16477 62.4663 6.16477H61.631V13H59.2617ZM64.3754 8.99432L66.5572 13H63.9833L61.8526 8.99432H64.3754ZM67.2773 13V4.27273H73.5671V6.18182H69.6467V7.68182H73.2433V9.59091H69.6467V11.0909H73.5501V13H67.2773ZM77.0092 13H74.4524L77.3331 4.27273H80.5717L83.4524 13H80.8956L78.9865 6.67614H78.9183L77.0092 13ZM76.532 9.55682H81.3388V11.3295H76.532V9.55682ZM84.293 13V4.27273H86.6623V11.0909H90.1907V13H84.293ZM91.1484 4.27273H94.0973L96.1257 9.21591H96.228L98.2564 4.27273H101.205V13H98.8871V7.95455H98.8189L96.8757 12.9318H95.478L93.5348 7.92045H93.4666V13H91.1484V4.27273Z" fill="#EBFF00"/>
</svg>
