<svg width="175" height="176" viewBox="0 0 175 176" fill="none" xmlns="http://www.w3.org/2000/svg">
<rect x="4" y="4.24365" width="167" height="167" fill="#1400FF" stroke="#1400FF" stroke-width="8"/>
<path d="M104.111 122.22L117.11 128.979C120.188 131.655 119.42 133.478 121.558 135.134C123.666 137.071 125.009 137.385 126.262 135.561C127.259 133.486 127.059 131.411 127.372 129.151C128.826 127.754 130.021 127.056 131.221 125.659C132.532 124.201 132.474 122.763 130.451 121.735C128.767 121.058 127.172 120.708 125.151 121.304C123.865 121.715 122.497 121.941 120.787 121.222L106.761 114.71L66.9084 100.885C61.5469 98.2763 57.0932 96.3244 51.7891 93.3867C48.9091 91.1069 49.8377 88.4975 46.3495 86.3817C44.8151 85.6217 43.7058 85.2728 42.4772 87.3677C41.6925 89.2166 41.754 91.1885 41.6352 93.0989C40.2627 94.578 38.71 95.441 37.5822 97.2694C35.9491 99.8984 38.4247 100.761 39.7599 101.09C43.5481 102.035 44.9164 100.33 48.4084 101.029C55.1975 104.192 62.0485 107.479 68.6012 110.705L104.111 122.22Z" fill="black"/>
<path d="M124.45 138.055C124.45 138.055 124.45 138.055 124.45 138.055C123.331 138.055 122.216 137.474 120.728 136.114C119.52 135.163 119.062 134.16 118.618 133.19C118.183 132.238 117.734 131.255 116.379 130.045L103.614 123.408L68.2051 111.925C68.1465 111.906 68.0896 111.883 68.0344 111.856C61.3486 108.566 54.6122 105.337 48.0101 102.26C47.565 102.179 47.1388 102.14 46.7108 102.14C45.9738 102.14 45.312 102.257 44.6109 102.382C43.8229 102.522 43.008 102.667 42.025 102.667C41.1846 102.667 40.3421 102.559 39.4491 102.336C38.7643 102.168 36.669 101.652 35.9725 99.9419C35.5622 98.9342 35.7366 97.8069 36.4912 96.5917C37.3057 95.2715 38.2887 94.4156 39.2386 93.5874C39.636 93.2415 40.0159 92.9102 40.3794 92.55C40.3881 92.3735 40.3965 92.197 40.4045 92.0196C40.4806 90.338 40.5597 88.5991 41.2955 86.8656C41.3168 86.815 41.3419 86.7657 41.3695 86.718C41.6903 86.1708 42.6667 84.506 44.5172 84.506C45.3831 84.506 46.1788 84.8641 46.9192 85.2309C46.9518 85.2472 46.9836 85.2648 47.0149 85.2836C49.232 86.6285 49.9565 88.1908 50.5956 89.5692C51.0687 90.5902 51.4791 91.4758 52.5073 92.3162C56.2524 94.3859 59.5942 95.9726 63.131 97.6517C64.5022 98.303 65.9199 98.976 67.4011 99.6963L107.182 113.496C107.223 113.51 107.262 113.527 107.302 113.545L121.306 120.046C121.884 120.287 122.436 120.404 122.993 120.404C123.515 120.404 124.06 120.304 124.76 120.08C124.77 120.077 124.779 120.075 124.788 120.072C125.603 119.831 126.383 119.714 127.174 119.714C128.677 119.714 129.971 120.158 130.93 120.543C130.965 120.557 130.999 120.572 131.032 120.589C132.36 121.263 133.136 122.158 133.34 123.248C133.479 123.991 133.39 125.159 132.186 126.505C131.41 127.406 130.661 128.022 129.869 128.675C129.455 129.015 129.031 129.364 128.588 129.769C128.535 130.247 128.5 130.726 128.466 131.193C128.349 132.785 128.228 134.43 127.419 136.114C127.391 136.174 127.358 136.231 127.32 136.286C126.515 137.461 125.549 138.055 124.45 138.055ZM69.0852 109.511L104.507 120.999C104.575 121.021 104.64 121.048 104.703 121.081L117.703 127.84C117.793 127.886 117.877 127.943 117.953 128.01C119.814 129.629 120.446 131.012 120.954 132.123C121.345 132.979 121.604 133.544 122.344 134.118C122.373 134.14 122.4 134.163 122.427 134.188C123.657 135.318 124.222 135.487 124.45 135.487C124.68 135.487 124.947 135.191 125.148 134.913C125.708 133.697 125.799 132.447 125.905 131.007C125.953 130.354 126.002 129.68 126.1 128.976C126.14 128.69 126.274 128.426 126.483 128.225C127.116 127.617 127.686 127.148 128.237 126.694C128.976 126.086 129.613 125.561 130.248 124.822C130.254 124.815 130.26 124.808 130.267 124.801C130.656 124.367 130.861 123.964 130.816 123.72C130.771 123.479 130.436 123.175 129.918 122.905C128.824 122.469 128.001 122.283 127.174 122.283C126.638 122.283 126.099 122.364 125.527 122.532C124.88 122.738 124.009 122.973 122.993 122.973C122.081 122.973 121.196 122.787 120.29 122.406C120.275 122.399 120.261 122.394 120.246 122.387L106.278 115.902L66.4871 102.098C66.439 102.082 66.3917 102.062 66.3461 102.04C64.8507 101.312 63.4167 100.631 62.0296 99.9724C58.4255 98.2611 55.0213 96.6448 51.1671 94.5102C51.1056 94.4759 51.047 94.437 50.9922 94.3939C49.4273 93.1549 48.8103 91.8238 48.2661 90.6501C47.6939 89.4161 47.2408 88.4385 45.7295 87.5077C45.266 87.2798 44.8038 87.0744 44.5177 87.0744C44.2211 87.0744 43.8772 87.5328 43.6275 87.9461C43.1013 89.2337 43.0373 90.6446 42.9699 92.1367C42.954 92.4856 42.9381 92.8336 42.9168 93.1795C42.8984 93.4753 42.7779 93.7556 42.5767 93.9727C42.0271 94.565 41.4674 95.0527 40.9261 95.5242C40.0464 96.2901 39.2872 96.9518 38.6752 97.9436C38.3933 98.3975 38.2728 98.7815 38.351 98.9735C38.3849 99.0563 38.6267 99.4889 40.0669 99.8436C40.7579 100.016 41.3971 100.099 42.0254 100.099C42.7821 100.099 43.4522 99.9799 44.1617 99.854C44.9414 99.7152 45.7479 99.5717 46.7113 99.5717C47.3567 99.5717 47.9942 99.6361 48.6601 99.7695C48.7605 99.7896 48.858 99.8218 48.9504 99.8653C55.5877 102.957 62.3613 106.203 69.0852 109.511Z" fill="white"/>
<path d="M107.02 110.419L126.433 101.269C130.11 99.8143 130.624 101.865 133.869 101.269C136.351 101.24 138.403 100.271 138.233 97.9349C136.98 96.0797 135.808 94.9147 133.615 92.8876C133.729 90.7224 133.327 88.6418 132.506 86.5607C131.649 85.3342 130.108 84.7938 127.801 86.9878C125.463 88.7543 126.203 91.1211 123.268 93.5719C118.481 95.9546 114.118 98.0499 108.816 100.679L68.4496 114.628C63.7762 117.113 59.53 119.414 54.1724 121.469C49.809 122.558 49.9818 119.887 44.6818 121.653C43.1676 122.845 43.1969 124.57 44.4229 125.844C45.8464 127.241 46.847 128.124 48.1002 129.357C48.4989 131.124 48.5562 132.643 48.7842 134.759C49.6388 137.348 51.5224 137.204 53.1454 135.951C53.8582 135.068 54.7413 134.267 55.2817 133.301C56.0213 132.027 56.8512 130.569 57.8497 129.377L70.7607 122.536L107.02 110.419Z" fill="black"/>
<path d="M51.0109 138.107C51.0105 138.107 51.0109 138.107 51.0109 138.107C50.0869 138.107 48.4108 137.724 47.5645 135.162C47.5365 135.076 47.5173 134.987 47.5072 134.897C47.4461 134.329 47.3968 133.803 47.3504 133.304C47.2357 132.074 47.1425 131.077 46.9249 130.003C46.4272 129.519 45.9632 129.084 45.4768 128.626C44.8773 128.063 44.2574 127.481 43.5233 126.76C43.5145 126.751 43.5057 126.743 43.4973 126.734C42.613 125.816 42.1692 124.687 42.247 123.557C42.3236 122.451 42.9059 121.416 43.8872 120.643C44.0035 120.552 44.1348 120.481 44.275 120.434C45.6642 119.971 46.8526 119.746 47.9084 119.746C48.9533 119.746 49.7297 119.96 50.4149 120.149C51.0097 120.313 51.5234 120.454 52.196 120.454C52.6708 120.454 53.192 120.384 53.7868 120.24C58.778 118.32 62.8557 116.149 67.1718 113.852L67.8457 113.493C67.9051 113.462 67.9661 113.435 68.0293 113.413L108.318 99.4922C110.853 98.2348 113.179 97.097 115.429 95.9969C117.847 94.8139 120.135 93.6949 122.554 92.4915C123.763 91.4449 124.188 90.4384 124.637 89.3747C125.097 88.2846 125.619 87.0501 126.966 86.0081C128.239 84.813 129.48 84.2069 130.657 84.2069C131.798 84.2069 132.827 84.7817 133.556 85.8249C133.614 85.9069 133.661 85.9956 133.698 86.0884C134.541 88.2243 134.941 90.2765 134.915 92.3438C136.746 94.0463 138.008 95.3113 139.295 97.2158C139.421 97.4015 139.496 97.617 139.512 97.8407C139.598 99.0304 139.254 100.084 138.515 100.889C137.554 101.934 135.991 102.508 133.991 102.55C133.545 102.627 133.122 102.664 132.703 102.664C131.733 102.664 130.997 102.463 130.347 102.285C129.826 102.143 129.375 102.019 128.855 102.019C128.305 102.019 127.678 102.16 126.941 102.448L107.567 111.579C107.522 111.6 107.474 111.619 107.427 111.636L71.267 123.72L58.6781 130.39C57.8632 131.407 57.142 132.65 56.5012 133.756L56.3912 133.945C55.9708 134.696 55.3998 135.331 54.8481 135.945C54.5967 136.225 54.3591 136.489 54.1436 136.756C54.0805 136.834 54.0085 136.905 53.929 136.966C52.964 137.713 51.9546 138.107 51.0109 138.107ZM50.0451 134.479C50.2982 135.183 50.6228 135.539 51.0109 135.539C51.3443 135.539 51.7911 135.351 52.25 135.018C52.4767 134.744 52.7114 134.483 52.9389 134.23C53.4179 133.697 53.8701 133.193 54.1608 132.674L54.28 132.468C55.0133 131.204 55.8445 129.771 56.8651 128.553C56.9714 128.426 57.1015 128.321 57.2479 128.243L70.1589 121.402C70.2212 121.369 70.286 121.341 70.353 121.319L106.541 109.225L125.885 100.108C125.91 100.096 125.935 100.085 125.96 100.075C127.02 99.6562 127.967 99.4525 128.856 99.4525C129.721 99.4525 130.414 99.642 131.026 99.8093C131.591 99.9641 132.079 100.097 132.704 100.097C133 100.097 133.305 100.068 133.638 100.006C133.709 99.9933 133.782 99.9862 133.854 99.9854C135.142 99.9703 136.152 99.6662 136.625 99.1521C136.759 99.0066 136.924 98.7731 136.954 98.3419C135.841 96.7573 134.728 95.6647 132.743 93.8309C132.463 93.5719 132.313 93.2009 132.333 92.8198C132.431 90.9705 132.116 89.1258 131.372 87.1865C131.043 86.7753 130.768 86.7753 130.659 86.7753C130.371 86.7753 129.732 86.9238 128.686 87.9181C128.651 87.9516 128.614 87.9825 128.575 88.0122C127.733 88.6485 127.427 89.373 127.004 90.3744C126.495 91.5791 125.862 93.0783 124.09 94.5575C124.013 94.6215 123.929 94.6767 123.839 94.7214C121.36 95.9554 119.028 97.0966 116.558 98.3042C114.289 99.4136 111.943 100.561 109.386 101.83C109.337 101.854 109.286 101.875 109.234 101.893L68.9638 115.808L68.379 116.12C63.9696 118.467 59.8046 120.684 54.6318 122.667C54.5833 122.686 54.5335 122.701 54.4829 122.714C53.6513 122.922 52.9034 123.022 52.1968 123.022C51.177 123.022 50.4103 122.811 49.7339 122.625C49.1294 122.459 48.6069 122.315 47.9092 122.315C47.1876 122.315 46.3385 122.472 45.3195 122.796C45.0764 123.021 44.8368 123.341 44.8096 123.734C44.7828 124.127 44.9694 124.555 45.3366 124.941C46.0448 125.636 46.6505 126.205 47.2362 126.755C47.8214 127.306 48.3748 127.826 49.0006 128.441C49.1763 128.614 49.2984 128.833 49.3524 129.074C49.6636 130.453 49.7765 131.663 49.9075 133.065C49.9484 133.511 49.9924 133.978 50.0451 134.479Z" fill="white"/>
<path d="M61.609 83.0436C57.677 79.2228 54.9329 72.5872 54.5485 65.4284C54.1377 57.54 58.2915 49.7135 64.5196 45.2351C71.4982 40.3233 83.1639 38.9676 90.4198 39.3374C95.3333 39.3416 106.279 41.8886 110.145 44.7666C116.924 49.6967 120.556 56.6895 120.806 64.662C121.18 72.6697 117.807 78.7706 113.678 82.5751" fill="black"/>
<path d="M60.714 83.9643C56.4485 79.8189 53.6643 72.9156 53.2661 65.4974C52.8465 57.4441 56.9697 49.0822 63.7701 44.1926C71.6012 38.6806 84.209 37.7399 90.4534 38.0536C93.0072 38.0611 97.0434 38.7032 100.999 39.7318C103.6 40.4086 108.348 41.8288 110.911 43.7371C117.952 48.8572 121.821 56.0821 122.089 64.6223C122.555 74.5871 117.565 80.7408 114.548 83.5201L112.808 81.6318C115.496 79.1555 119.942 73.666 119.524 64.7227C119.281 56.9848 115.777 50.4505 109.39 45.8056C105.936 43.2347 95.4459 40.6262 90.4187 40.6216L90.3547 40.6199C79.4344 40.0644 69.69 43.1665 65.2589 46.285C59.1604 50.6697 55.4555 58.1611 55.8307 65.3618C56.1896 72.0484 58.7467 78.472 62.5039 82.1229L60.714 83.9643Z" fill="white"/>
<path d="M61.9991 81.6962C61.9991 81.6962 57.2476 96.0822 66.4034 98.5347L69.7415 117.775C73.2545 132.919 101.459 132.929 105.609 117.775L108.937 98.5347C118.324 96.0286 113.559 81.6899 113.559 81.6899L61.9991 81.6962Z" fill="black"/>
<path d="M77.2223 106.973L74.6552 106.917C74.6882 105.39 74.4134 104.181 72.9276 102.562C72.7812 102.452 72.6394 102.344 72.5005 102.239C71.3284 101.35 70.4818 100.707 69.0014 100.319L68.9516 100.305L68.6818 100.223C66.5777 99.5826 64.4017 98.92 62.6665 97.3794C60.5683 95.4924 59.4138 91.1671 59.8526 86.8561L59.8639 86.7707C60.0091 85.9178 60.1864 85.0431 60.3738 84.1174C60.9933 81.06 61.6952 77.5948 61.2891 74.2442L61.2807 74.1371C61.2468 73.2227 60.8678 72.1761 60.4663 71.0675C60.035 69.8771 59.5891 68.646 59.464 67.3296L59.4581 67.2693C59.1611 64.0141 58.9265 61.4423 61.0017 59.6269L62.6925 61.5599C61.6488 62.473 61.7367 63.9814 62.0157 67.0363L62.0207 67.0916C62.1148 68.0783 62.4867 69.1057 62.8807 70.1933C63.3254 71.421 63.7851 72.6902 63.8449 73.9869C64.2883 77.732 63.5462 81.3943 62.8912 84.6278C62.7109 85.5175 62.5406 86.3587 62.4034 87.1593C62.0173 91.0542 63.13 94.3429 64.3778 95.4652C65.6871 96.6273 67.4218 97.1556 69.4306 97.7672L69.6778 97.8425C71.638 98.3607 72.8113 99.2513 74.0533 100.194C74.2168 100.318 74.3845 100.446 74.559 100.577L74.6506 100.644L74.7288 100.728C76.5535 102.68 77.2759 104.489 77.2223 106.973ZM98.3204 106.889C98.269 104.374 99.0775 102.401 100.864 100.679L100.957 100.599C102.601 99.2931 104.272 98.3202 105.79 97.7843C106.034 97.6952 106.329 97.5986 106.67 97.4861C108.023 97.0406 110.068 96.3675 111.17 95.3858C112.412 94.2647 113.525 90.9676 113.14 87.0673C113.003 86.2696 112.834 85.4305 112.654 84.5433C111.998 81.3081 111.255 77.6425 111.699 73.8911C111.758 72.6052 112.216 71.3411 112.659 70.118C113.054 69.0245 113.429 67.9917 113.523 66.9912L113.528 66.9431C113.807 63.8886 113.895 62.3802 112.85 61.4628L114.544 59.5323C116.618 61.3528 116.382 63.9229 116.085 67.1769L116.08 67.2292C115.954 68.559 115.507 69.7959 115.074 70.9922C114.674 72.0957 114.297 73.1382 114.263 74.0417L114.254 74.1484C113.848 77.5057 114.55 80.9734 115.17 84.0329C115.357 84.9566 115.534 85.8287 115.679 86.6791L115.69 86.7649C116.128 91.0785 114.974 95.4096 112.885 97.297C111.377 98.6393 109.027 99.4128 107.473 99.924C107.151 100.03 106.874 100.121 106.655 100.201C105.406 100.642 104.009 101.459 102.602 102.569C101.364 103.78 100.851 105.059 100.888 106.835L98.3204 106.889Z" fill="white"/>
<path d="M87.778 130.218C83.4456 130.218 81.0052 129.81 77.3341 128.472L77.2885 128.454C73.4715 126.896 69.5277 122.251 68.492 118.094C67.6868 115.06 67.5763 111.59 68.19 108.768C68.0302 105.799 66.8267 102.905 65.5538 99.8444C65.44 99.5713 65.3263 99.2969 65.2129 99.0225L67.5859 98.0424C67.6985 98.3143 67.8118 98.5866 67.9248 98.8581C69.2508 102.046 70.622 105.343 70.7638 108.828L70.7709 109L70.7324 109.168C70.1635 111.635 70.2547 114.729 70.9767 117.444L70.9822 117.465C71.8242 120.86 75.1426 124.793 78.2373 126.067C81.6092 127.294 83.7539 127.649 87.7784 127.649V130.218H87.778Z" fill="white"/>
<path d="M87.5928 130.23V127.662C91.6574 127.662 93.7741 127.277 97.0302 125.949C100.17 124.671 103.528 120.784 104.363 117.462C105.09 114.726 105.183 111.632 104.614 109.169L104.576 109.001L104.583 108.829C104.721 105.344 106.092 102.046 107.418 98.8565C107.531 98.5858 107.644 98.3143 107.756 98.0428L110.13 99.0229C110.016 99.2965 109.903 99.5701 109.79 99.8428C108.517 102.904 107.313 105.799 107.157 108.767C107.771 111.589 107.658 115.065 106.85 118.105C105.812 122.233 101.923 126.731 97.9998 128.327C94.4262 129.786 91.9946 130.23 87.5928 130.23Z" fill="white"/>
<path d="M86.9582 88.0026C84.9658 89.5186 84.522 90.0281 83.4206 91.7046C83.022 92.3517 82.2786 93.8614 82.0753 94.8762C81.8699 95.891 81.7198 97.3618 81.7219 98.1428C81.7424 100.783 82.5639 102.436 83.4884 102.381C84.3099 102.278 85.3578 101.415 86.9394 99.4843L86.9582 88.0026ZM88.3984 88.0419C90.3908 89.5412 90.843 90.0548 91.931 91.7398C92.3418 92.376 93.0818 93.8966 93.2872 94.903C93.4926 95.909 93.657 97.3886 93.6365 98.1691C93.6365 100.799 92.794 102.463 91.89 102.401C91.0685 102.298 90.0206 101.435 88.439 99.5044L88.3984 88.0419ZM70.0541 76.4352C72.827 75.942 75.4979 75.6342 78.2713 75.3259C81.8867 74.4014 83.7151 78.5305 82.7287 81.6527C81.4755 84.4056 79.709 86.8293 77.6957 89.1718C76.1346 90.9383 74.2652 91.2052 72.4777 90.6099C71.0396 90.1992 69.7249 89.3153 68.2871 87.2614C67.6706 85.4949 67.1368 84.5704 66.3353 82.3927C65.715 80.3589 66.6846 77.3392 70.0946 76.3942L70.0541 76.4352ZM105.408 76.4352C102.655 75.942 99.9633 75.6342 97.2109 75.3259C93.595 74.4014 91.7671 78.5305 92.7739 81.6527C94.0267 84.4056 95.7937 86.8293 97.8275 89.1718C99.4091 90.9383 101.278 91.2052 103.045 90.6099C104.483 90.1992 105.818 89.3153 107.236 87.2614C107.873 85.4949 108.407 84.5704 109.208 82.3927C109.845 80.3589 108.859 77.3392 105.449 76.3942L105.408 76.4352Z" fill="white"/>
<path d="M91.938 102.505C91.9196 102.505 91.9016 102.504 91.8832 102.503C91.0186 102.395 89.9335 101.49 88.3598 99.5692L88.5188 99.4387C90.0565 101.316 91.1001 102.198 91.9033 102.299C92.0966 102.31 92.2948 102.228 92.486 102.049C92.9926 101.576 93.5339 100.308 93.5339 98.1687C93.5539 97.4124 93.3979 95.958 93.1867 94.9231C92.9926 93.9723 92.2743 92.4601 91.8451 91.7946C90.7776 90.1423 90.3581 89.6441 88.3364 88.1235L88.4602 87.9591C90.4944 89.4901 90.9508 90.0318 92.0179 91.6829C92.4467 92.3476 93.1812 93.8694 93.3879 94.8813C93.6016 95.9287 93.7593 97.4045 93.7392 98.1704C93.7392 100.013 93.3126 101.557 92.6261 102.199C92.4115 102.4 92.1744 102.505 91.938 102.505ZM83.4456 102.484C83.1954 102.484 82.9603 102.38 82.7403 102.174C82.0526 101.532 81.6335 100.025 81.6188 98.1432C81.6167 97.3091 81.7761 95.8346 81.974 94.8558C82.1764 93.846 82.9047 92.3463 83.333 91.6507C84.4353 89.9729 84.8632 89.4676 86.8958 87.9211L87.02 88.0846C85.013 89.6115 84.5909 90.1101 83.5062 91.7611C83.144 92.3488 82.3801 93.8761 82.1756 94.8967C81.9798 95.8643 81.8221 97.3204 81.8242 98.1428C81.838 99.9411 82.2429 101.429 82.8804 102.024C83.0737 102.205 83.2757 102.291 83.482 102.278C84.278 102.178 85.3221 101.296 86.8598 99.4186L87.0187 99.5491C85.4451 101.47 84.36 102.375 83.5008 102.483C83.4824 102.484 83.464 102.484 83.4456 102.484ZM101.38 90.999C100.24 90.9994 98.9509 90.5811 97.7504 89.2404C95.4049 86.539 93.7936 84.1421 92.6801 81.6954C92.056 79.7608 92.4864 77.4982 93.7238 76.1822C94.6302 75.2184 95.8776 74.8791 97.2363 75.2263C100.231 75.5606 102.744 75.8559 105.372 76.3244L105.417 76.2788L105.476 76.2947C107.445 76.8406 108.427 77.9997 108.904 78.8765C109.505 79.9808 109.655 81.3064 109.305 82.4229C108.892 83.5464 108.556 84.3241 108.23 85.0758C107.927 85.776 107.641 86.4373 107.332 87.2953L107.32 87.3191C106.027 89.1931 104.717 90.2385 103.073 90.7078C102.579 90.8747 102.002 90.999 101.38 90.999ZM96.2043 75.2962C95.1017 75.2962 94.3462 75.8203 93.8735 76.3231C92.6851 77.5868 92.2731 79.7654 92.8713 81.6214C93.9722 84.0379 95.5731 86.4194 97.9047 89.104C99.6834 91.0914 101.664 90.9663 103.012 90.5125C104.608 90.0561 105.881 89.0388 107.143 87.2133C107.453 86.3554 107.739 85.6944 108.042 84.9946C108.366 84.245 108.701 83.4703 109.111 82.3568C109.443 81.2972 109.299 80.031 108.723 78.9748C108.27 78.1415 107.34 77.0418 105.478 76.5089L105.441 76.5453L105.389 76.5361C102.747 76.063 100.223 75.7664 97.199 75.428C96.8406 75.3364 96.5093 75.2962 96.2043 75.2962ZM74.1529 90.9981C73.5284 90.9981 72.9457 90.8739 72.445 90.707C70.8286 90.2452 69.5189 89.2003 68.2025 87.32L68.1895 87.2949C67.8779 86.4014 67.5834 85.7145 67.2714 84.9871C66.9581 84.2571 66.6343 83.5021 66.239 82.4279C65.8926 81.2939 66.0499 79.9599 66.6573 78.8547C67.1346 77.9859 68.113 76.8364 70.0673 76.2951L70.4421 76.1914L70.3555 76.278C72.9666 75.8254 75.4861 75.5321 78.2594 75.2238C79.6005 74.88 80.8462 75.2171 81.7531 76.1763C82.9946 77.489 83.4359 79.7537 82.8265 81.6841C81.7192 84.1183 80.115 86.5152 77.7733 89.2392C76.5883 90.5794 75.2999 90.9977 74.1529 90.9981ZM68.3795 87.2137C69.6637 89.0455 70.937 90.0624 72.506 90.5108C73.8722 90.9655 75.8634 91.0897 77.6186 89.1036C79.946 86.3959 81.5406 84.0145 82.6349 81.6105C83.2189 79.7595 82.7968 77.5781 81.6038 76.3173C81.0002 75.6789 79.936 75.0063 78.2962 75.4255C75.3995 75.7484 72.7917 76.0529 70.0719 76.5365L69.8419 76.5775C68.1427 77.1275 67.2722 78.1624 66.8372 78.9539C66.2561 80.0122 66.1051 81.2863 66.4339 82.363C66.8254 83.4268 67.1484 84.1789 67.4604 84.9068C67.7721 85.6329 68.067 86.3198 68.3795 87.2137Z" fill="white"/>
<path d="M73.1392 114.336C72.7142 110.886 72.4511 109.309 71.7312 106.78C70.8958 104.067 70.5319 103.023 69.3857 100.34L70.5662 99.8357C71.7358 102.573 72.1072 103.637 72.9623 106.415C73.7094 109.04 73.9796 110.655 74.4134 114.18L73.1392 114.336ZM102.117 114.193L100.843 114.036C101.281 110.484 101.551 108.866 102.288 106.276C103.135 103.536 103.505 102.479 104.691 99.6888L105.873 100.191C104.709 102.928 104.346 103.966 103.519 106.642C102.804 109.154 102.553 110.659 102.117 114.193Z" fill="white"/>
<path d="M86.5803 114.518C82.24 114.518 78.6857 113.615 75.75 111.77L76.2967 110.9C79.3248 112.804 83.0804 113.643 87.7792 113.468C92.7545 113.346 96.0152 112.892 99.0128 110.851L99.5913 111.7C96.3992 113.873 92.8545 114.371 87.811 114.494C87.394 114.51 86.9836 114.518 86.5803 114.518ZM86.4992 109.078C80.8383 109.078 77.066 108.39 74.6963 106.935L75.2342 106.06C77.5864 107.504 81.7234 108.152 87.8876 108.038C92.5429 108.016 97.2559 107.746 100.244 105.935L100.776 106.813C97.5747 108.754 92.6956 109.042 87.8993 109.065C87.4203 109.074 86.9535 109.078 86.4992 109.078Z" fill="white"/>
<path d="M88.5777 119.731C88.3154 119.731 88.0531 119.727 87.7913 119.717C82.7616 119.586 77.058 119.046 73.1108 114.284L74.0993 113.464C77.3512 117.389 81.7647 118.275 87.8314 118.434C93.4714 118.644 99.4879 116.419 100.967 113.581L102.106 114.175C100.467 117.318 94.5088 119.731 88.5777 119.731Z" fill="white"/>
<path d="M75.976 107.428L75.894 115.891L75.976 107.428ZM78.7553 108.325L78.7143 117.389L78.7553 108.325ZM81.8369 108.71L81.7487 118.2L81.8369 108.71ZM84.6166 108.923L84.5714 118.543L84.6166 108.923ZM87.7346 109.012V118.63V109.012ZM90.728 108.954L90.7694 118.568L90.728 108.954ZM93.4231 108.687L93.5051 118.136L93.4231 108.687ZM96.5458 108.173L96.5868 117.233L96.5458 108.173ZM99.366 107.043L99.448 115.589L99.366 107.043Z" fill="white"/>
<path d="M88.2483 118.63H87.2213V109.012H88.2483V118.63ZM90.2557 118.57L90.2143 108.956L91.2413 108.952L91.2827 118.565L90.2557 118.57ZM85.0846 118.546L84.0577 118.541L84.1025 108.921L85.1298 108.926L85.0846 118.546ZM82.2623 118.205L81.235 118.195L81.3232 108.705L82.3506 108.715L82.2623 118.205ZM92.9919 118.141L92.9099 108.691L93.9368 108.682L94.0188 118.132L92.9919 118.141ZM79.2279 117.391L78.201 117.386L78.242 108.323L79.2694 108.328L79.2279 117.391ZM96.0731 117.235L96.0317 108.176L97.0591 108.171L97.1001 117.23L96.0731 117.235ZM76.4077 115.896L75.3804 115.886L75.4624 107.423L76.4897 107.433L76.4077 115.896ZM98.9347 115.594L98.8528 107.048L99.8797 107.038L99.9617 115.584L98.9347 115.594Z" fill="white"/>
</svg>
